<svg width="151" height="53" viewBox="0 0 151 53" fill="none" xmlns="http://www.w3.org/2000/svg">
<path d="M150 46.3593L146.959 10.342L143.918 22.1912L140.877 37.7789L137.837 1L134.796 15.28L131.755 14.0602L128.714 32.5164L125.673 19.7252L122.632 16.1904L119.592 30.5055L116.551 30.4453L113.51 45.1466L110.469 20.991L107.428 33.6738L104.387 22.1204L101.346 27.1117L98.3056 27.2695L95.2647 31.9385L92.2239 32.061L89.183 27.0707L86.1421 21.765L83.1013 25.8131L80.0604 10.5754L77.0196 29.2986L73.9788 23.7478L70.9379 24.0391L67.897 37.8836L64.8562 17.9895L61.8153 22.2949L58.7745 24.0545L55.7336 52L52.6928 3.67673L49.6519 23.667L46.6111 35.3414L43.5702 34.5047L40.5294 34.9243L37.4885 29.3861L34.4477 33.6987L31.4068 25.5694L28.366 25.9011L25.3251 40.078L22.2843 12.6795L19.2434 36.8727L16.2026 47.8607L13.1617 37.0376L10.1209 34.0648L7.08004 19.2597L4.03919 26.2107L1 20.5519V52H4.03919H7.08004H10.1209H13.1617H16.2026H19.2434H22.2843H25.3251H28.366H31.4068H34.4477H37.4885H40.5294H43.5702H46.6111H49.6519H52.6928H55.7336H58.7745H61.8153H64.8562H67.897H70.9379H73.9788H77.0196H80.0604H83.1013H86.1421H89.183H92.2239H95.2647H98.3056H101.346H104.387H107.428H110.469H113.51H116.551H119.592H122.632H125.673H128.714H131.755H134.796H137.837H140.877H143.918H146.959H150V46.3593Z" fill="url(#paint0_linear_9_119)"/>
<path d="M150 46.3593L146.959 10.342L143.918 22.1912L140.877 37.7789L137.837 1L134.796 15.28L131.755 14.0602L128.714 32.5164L125.673 19.7252L122.632 16.1904L119.592 30.5055L116.551 30.4453L113.51 45.1466L110.469 20.991L107.428 33.6738L104.387 22.1204L101.346 27.1117L98.3056 27.2695L95.2647 31.9385L92.2239 32.061L89.183 27.0707L86.1421 21.765L83.1013 25.8131L80.0604 10.5754L77.0196 29.2986L73.9788 23.7478L70.9379 24.0391L67.897 37.8836L64.8562 17.9895L61.8153 22.2949L58.7745 24.0545L55.7336 52L52.6928 3.67673L49.6519 23.667L46.6111 35.3414L43.5702 34.5047L40.5294 34.9243L37.4885 29.3861L34.4477 33.6987L31.4068 25.5694L28.366 25.9011L25.3251 40.078L22.2843 12.6795L19.2434 36.8727L16.2026 47.8607L13.1617 37.0376L10.1209 34.0648L7.08004 19.2597L4.03919 26.2107L1 20.5519" stroke="#5C80BC" stroke-width="0.7" stroke-linecap="round" stroke-linejoin="round"/>
<path d="M150 46.3593L146.959 10.342L143.918 22.1912L140.877 37.7789L137.837 1L134.796 15.28L131.755 14.0602L128.714 32.5164L125.673 19.7252L122.632 16.1904L119.592 30.5055L116.551 30.4453L113.51 45.1466L110.469 20.991L107.428 33.6738L104.387 22.1204L101.346 27.1117L98.3056 27.2695L95.2647 31.9385L92.2239 32.061L89.183 27.0707L86.1421 21.765L83.1013 25.8131L80.0604 10.5754L77.0196 29.2986L73.9788 23.7478L70.9379 24.0391L67.897 37.8836L64.8562 17.9895L61.8153 22.2949L58.7745 24.0545L55.7336 52L52.6928 3.67673L49.6519 23.667L46.6111 35.3414L43.5702 34.5047L40.5294 34.9243L37.4885 29.3861L34.4477 33.6987L31.4068 25.5694L28.366 25.9011L25.3251 40.078L22.2843 12.6795L19.2434 36.8727L16.2026 47.8607L13.1617 37.0376L10.1209 34.0648L7.08004 19.2597L4.03919 26.2107L1 20.5519" stroke="#5C80BC" stroke-width="0.7" stroke-linecap="round" stroke-linejoin="round"/>
<defs>
<linearGradient id="paint0_linear_9_119" x1="75.5" y1="1" x2="75.5" y2="1" gradientUnits="userSpaceOnUse">
<stop stop-color="white" stop-opacity="0.75"/>
<stop offset="1" stop-color="#2C3E50" stop-opacity="0"/>
</linearGradient>
</defs>
</svg>
